<?xml version="1.0" ?><svg fill="none" height="24" viewBox="0 0 24 24" width="24" xmlns="http://www.w3.org/2000/svg"><g id="Clean Car"><path clip-rule="evenodd" d="M7.43836 10.75C6.94801 10.75 6.50295 11.0367 6.30021 11.4832L5.52698 13.186C5.33948 13.5989 5.05278 13.959 4.6924 14.2343L3.84824 14.8792C3.78632 14.9265 3.75 14.9999 3.75 15.0778V19C3.75 19.1381 3.86193 19.25 4 19.25H12C12.4142 19.25 12.75 19.5858 12.75 20C12.75 20.4142 12.4142 20.75 12 20.75H4C3.0335 20.75 2.25 19.9665 2.25 19V15.0778C2.25 14.5324 2.50427 14.0182 2.93768 13.6872L3.78184 13.0423C3.94565 12.9172 4.07597 12.7535 4.16119 12.5658L4.93442 10.863C5.38045 9.88074 6.35959 9.25 7.43836 9.25H12C12.4142 9.25 12.75 9.58579 12.75 10C12.75 10.4142 12.4142 10.75 12 10.75H7.43836Z" fill="black" fill-rule="evenodd" id="Vector 16 (Stroke)"/><path clip-rule="evenodd" d="M16.5616 10.75C17.052 10.75 17.4971 11.0367 17.6998 11.4832L18.473 13.186C18.6605 13.5989 18.9472 13.959 19.3076 14.2343L20.1518 14.8792C20.2137 14.9265 20.25 14.9999 20.25 15.0778V19C20.25 19.1381 20.1381 19.25 20 19.25H12C11.5858 19.25 11.25 19.5858 11.25 20C11.25 20.4142 11.5858 20.75 12 20.75H20C20.9665 20.75 21.75 19.9665 21.75 19V15.0778C21.75 14.5324 21.4957 14.0182 21.0623 13.6872L20.2182 13.0423C20.0544 12.9172 19.924 12.7535 19.8388 12.5658L19.0656 10.863C18.6195 9.88074 17.6404 9.25 16.5616 9.25H12C11.5858 9.25 11.25 9.58579 11.25 10C11.25 10.4142 11.5858 10.75 12 10.75H16.5616Z" fill="black" fill-rule="evenodd" id="Vector 18 (Stroke)"/><path clip-rule="evenodd" d="M2.25 15C2.25 14.5858 2.58579 14.25 3 14.25H5C5.9665 14.25 6.75 15.0335 6.75 16V17C6.75 17.4142 6.41421 17.75 6 17.75H3C2.58579 17.75 2.25 17.4142 2.25 17V15ZM3.75 15.75V16.25H5.25V16C5.25 15.8619 5.13807 15.75 5 15.75H3.75Z" fill="black" fill-rule="evenodd" id="Rectangle 13 (Stroke)"/><path clip-rule="evenodd" d="M8.25 17C8.25 17.9665 9.0335 18.75 10 18.75H14C14.9665 18.75 15.75 17.9665 15.75 17V16C15.75 15.5858 15.4142 15.25 15 15.25H9C8.58579 15.25 8.25 15.5858 8.25 16V17ZM10 17.25C9.86193 17.25 9.75 17.1381 9.75 17V16.75H14.25V17C14.25 17.1381 14.1381 17.25 14 17.25H10Z" fill="black" fill-rule="evenodd" id="Rectangle 17 (Stroke)"/><path clip-rule="evenodd" d="M21.75 15C21.75 14.5858 21.4142 14.25 21 14.25H19C18.0335 14.25 17.25 15.0335 17.25 16V17C17.25 17.4142 17.5858 17.75 18 17.75H21C21.4142 17.75 21.75 17.4142 21.75 17V15ZM20.25 15.75V16.25H18.75V16C18.75 15.8619 18.8619 15.75 19 15.75H20.25Z" fill="black" fill-rule="evenodd" id="Rectangle 15 (Stroke)"/><path clip-rule="evenodd" d="M4.25 13C4.25 12.5858 4.58579 12.25 5 12.25L12 12.25C12.4142 12.25 12.75 12.5858 12.75 13C12.75 13.4142 12.4142 13.75 12 13.75L5 13.75C4.58579 13.75 4.25 13.4142 4.25 13Z" fill="black" fill-rule="evenodd" id="Vector 17 (Stroke)"/><path clip-rule="evenodd" d="M19.75 13C19.75 12.5858 19.4142 12.25 19 12.25L12 12.25C11.5858 12.25 11.25 12.5858 11.25 13C11.25 13.4142 11.5858 13.75 12 13.75L19 13.75C19.4142 13.75 19.75 13.4142 19.75 13Z" fill="black" fill-rule="evenodd" id="Vector 19 (Stroke)"/><path clip-rule="evenodd" d="M3.25 20C3.25 19.5858 3.58579 19.25 4 19.25H7C7.41421 19.25 7.75 19.5858 7.75 20V22C7.75 22.9665 6.9665 23.75 6 23.75H5C4.0335 23.75 3.25 22.9665 3.25 22V20ZM4.75 20.75V22C4.75 22.1381 4.86193 22.25 5 22.25H6C6.13807 22.25 6.25 22.1381 6.25 22V20.75H4.75Z" fill="black" fill-rule="evenodd" id="Rectangle 14 (Stroke)"/><path clip-rule="evenodd" d="M20.75 20C20.75 19.5858 20.4142 19.25 20 19.25H17C16.5858 19.25 16.25 19.5858 16.25 20V22C16.25 22.9665 17.0335 23.75 18 23.75H19C19.9665 23.75 20.75 22.9665 20.75 22V20ZM19.25 20.75V22C19.25 22.1381 19.1381 22.25 19 22.25H18C17.8619 22.25 17.75 22.1381 17.75 22V20.75H19.25Z" fill="black" fill-rule="evenodd" id="Rectangle 16 (Stroke)"/><path clip-rule="evenodd" d="M21.3354 3.32916C21.7059 3.5144 21.8561 3.96491 21.6708 4.33539L21.0042 5.66872C20.9316 5.81387 20.8139 5.93156 20.6687 6.00413L19.3354 6.6708C18.9649 6.85604 18.5144 6.70588 18.3292 6.33539C18.1439 5.96491 18.2941 5.5144 18.6646 5.32916L19.7743 4.7743L20.3292 3.66457C20.5144 3.29409 20.9649 3.14392 21.3354 3.32916Z" fill="black" fill-rule="evenodd" id="Vector 96 (Stroke)"/><path clip-rule="evenodd" d="M3.33541 3.32916C3.70589 3.5144 3.85606 3.96491 3.67082 4.33539L3.00415 5.66872C2.93158 5.81387 2.81389 5.93156 2.66874 6.00413L1.33541 6.6708C0.964923 6.85604 0.514418 6.70588 0.329176 6.33539C0.143934 5.96491 0.294102 5.5144 0.664586 5.32916L1.77431 4.7743L2.32918 3.66457C2.51442 3.29409 2.96492 3.14392 3.33541 3.32916Z" fill="black" fill-rule="evenodd" id="Vector 104 (Stroke)"/><path clip-rule="evenodd" d="M12.3354 0.329161C12.7059 0.514403 12.8561 0.964908 12.6708 1.33539L11.6708 3.33539C11.5982 3.48054 11.4806 3.59823 11.3354 3.6708L9.33541 4.6708C8.96492 4.85604 8.51442 4.70588 8.32918 4.33539C8.14393 3.96491 8.2941 3.5144 8.66459 3.32916L10.441 2.44096L11.3292 0.664571C11.5144 0.294087 11.9649 0.143919 12.3354 0.329161Z" fill="black" fill-rule="evenodd" id="Vector 100 (Stroke)"/><path clip-rule="evenodd" d="M21.3354 8.67084C21.7059 8.4856 21.8561 8.03509 21.6708 7.66461L21.0042 6.33128C20.9316 6.18613 20.8139 6.06844 20.6687 5.99587L19.3354 5.3292C18.9649 5.14396 18.5144 5.29412 18.3292 5.66461C18.1439 6.03509 18.2941 6.4856 18.6646 6.67084L19.7743 7.2257L20.3292 8.33543C20.5144 8.70591 20.9649 8.85608 21.3354 8.67084Z" fill="black" fill-rule="evenodd" id="Vector 97 (Stroke)"/><path clip-rule="evenodd" d="M3.33541 8.67084C3.70589 8.4856 3.85606 8.03509 3.67082 7.66461L3.00415 6.33128C2.93158 6.18613 2.81389 6.06844 2.66874 5.99587L1.33541 5.3292C0.964923 5.14396 0.514418 5.29412 0.329176 5.66461C0.143934 6.03509 0.294102 6.4856 0.664586 6.67084L1.77431 7.2257L2.32918 8.33543C2.51442 8.70591 2.96492 8.85608 3.33541 8.67084Z" fill="black" fill-rule="evenodd" id="Vector 105 (Stroke)"/><path clip-rule="evenodd" d="M12.3354 7.67084C12.7059 7.4856 12.8561 7.03509 12.6708 6.66461L11.6708 4.66461C11.5982 4.51946 11.4806 4.40177 11.3354 4.3292L9.33541 3.3292C8.96492 3.14396 8.51442 3.29412 8.32918 3.66461C8.14393 4.03509 8.2941 4.4856 8.66459 4.67084L10.441 5.55904L11.3292 7.33543C11.5144 7.70591 11.9649 7.85608 12.3354 7.67084Z" fill="black" fill-rule="evenodd" id="Vector 101 (Stroke)"/><path clip-rule="evenodd" d="M20.6646 3.32916C20.2941 3.5144 20.1439 3.96491 20.3292 4.33539L20.9958 5.66872C21.0684 5.81387 21.1861 5.93156 21.3313 6.00413L22.6646 6.6708C23.0351 6.85604 23.4856 6.70588 23.6708 6.33539C23.8561 5.96491 23.7059 5.5144 23.3354 5.32916L22.2257 4.7743L21.6708 3.66457C21.4856 3.29409 21.0351 3.14392 20.6646 3.32916Z" fill="black" fill-rule="evenodd" id="Vector 98 (Stroke)"/><path clip-rule="evenodd" d="M2.66459 3.32916C2.29411 3.5144 2.14394 3.96491 2.32918 4.33539L2.99585 5.66872C3.06842 5.81387 3.18611 5.93156 3.33126 6.00413L4.66459 6.6708C5.03508 6.85604 5.48558 6.70588 5.67082 6.33539C5.85607 5.96491 5.7059 5.5144 5.33541 5.32916L4.22569 4.7743L3.67082 3.66457C3.48558 3.29409 3.03508 3.14392 2.66459 3.32916Z" fill="black" fill-rule="evenodd" id="Vector 106 (Stroke)"/><path clip-rule="evenodd" d="M11.6646 0.329161C11.2941 0.514403 11.1439 0.964908 11.3292 1.33539L12.3292 3.33539C12.4018 3.48054 12.5194 3.59823 12.6646 3.6708L14.6646 4.6708C15.0351 4.85604 15.4856 4.70588 15.6708 4.33539C15.8561 3.96491 15.7059 3.5144 15.3354 3.32916L13.559 2.44096L12.6708 0.664571C12.4856 0.294087 12.0351 0.143919 11.6646 0.329161Z" fill="black" fill-rule="evenodd" id="Vector 102 (Stroke)"/><path clip-rule="evenodd" d="M20.6646 8.67084C20.2941 8.4856 20.1439 8.03509 20.3292 7.66461L20.9958 6.33128C21.0684 6.18613 21.1861 6.06844 21.3313 5.99587L22.6646 5.3292C23.0351 5.14396 23.4856 5.29412 23.6708 5.66461C23.8561 6.03509 23.7059 6.4856 23.3354 6.67084L22.2257 7.2257L21.6708 8.33543C21.4856 8.70591 21.0351 8.85608 20.6646 8.67084Z" fill="black" fill-rule="evenodd" id="Vector 99 (Stroke)"/><path clip-rule="evenodd" d="M2.66459 8.67084C2.29411 8.4856 2.14394 8.03509 2.32918 7.66461L2.99585 6.33128C3.06842 6.18613 3.18611 6.06844 3.33126 5.99587L4.66459 5.3292C5.03508 5.14396 5.48558 5.29412 5.67082 5.66461C5.85607 6.03509 5.7059 6.4856 5.33541 6.67084L4.22569 7.2257L3.67082 8.33543C3.48558 8.70591 3.03508 8.85608 2.66459 8.67084Z" fill="black" fill-rule="evenodd" id="Vector 107 (Stroke)"/><path clip-rule="evenodd" d="M11.6646 7.67084C11.2941 7.4856 11.1439 7.03509 11.3292 6.66461L12.3292 4.66461C12.4018 4.51946 12.5194 4.40177 12.6646 4.3292L14.6646 3.3292C15.0351 3.14396 15.4856 3.29412 15.6708 3.66461C15.8561 4.03509 15.7059 4.4856 15.3354 4.67084L13.559 5.55904L12.6708 7.33543C12.4856 7.70591 12.0351 7.85608 11.6646 7.67084Z" fill="black" fill-rule="evenodd" id="Vector 103 (Stroke)"/></g></svg>