<?xml version="1.0" ?><svg id="Layer_2" style="enable-background:new 0 0 1000 1000;" version="1.1" viewBox="0 0 1000 1000" xml:space="preserve" xmlns="http://www.w3.org/2000/svg" xmlns:xlink="http://www.w3.org/1999/xlink"><path d="M174.891,621.091h31.956c4.192,33.491,32.762,59.404,67.385,59.404  c34.623,0,63.193-25.913,67.385-59.404h278.991c4.192,33.491,32.763,59.404,67.385,59.404c34.623,0,63.193-25.913,67.386-59.404  h37.477c7.174,0,13.129-5.531,13.68-12.686l2.628-34.534l0.001-0.004c2.383,0.854,4.949,1.323,7.626,1.323h8.53  c12.478,0,22.592-10.115,22.592-22.592v-75.539c0-12.477-10.114-22.592-22.592-22.592h-8.53c-2.68,0-5.25,0.469-7.636,1.326v-0.001  l-12.44-101.162c-1.004-8.139-5.797-15.314-12.922-19.359l-21.898-12.41c-3.887-2.204-8.287-3.356-12.754-3.356h-90.7  c-4.606,0-9.182,0.551-13.65,1.653l-78.693,19.388c-3.1,0.767-6.27,1.27-9.458,1.506l-160.861,11.829  c-7.489,0.551-14.261,4.626-18.256,10.974l-44.691,71.096c-4.016,6.407-10.865,10.491-18.404,10.993l-57.839,3.858  c-5.255,0.344-10.294-2.136-13.207-6.515l-4.694-7.037c-2.273-3.415-6.112-5.472-10.216-5.472h-4.497  c-3.73,0-7.264,1.703-9.596,4.616l-8.779,10.983c-2.086,2.598-4.881,4.547-8.04,5.59l-10.501,3.474  c-7.056,2.342-11.819,8.936-11.819,16.367l-9.842,59.276v20.618c0,4.95-2.499,9.556-6.653,12.253  c-4.153,2.696-6.652,7.303-6.652,12.253v21.081C152.088,610.876,162.294,621.091,174.891,621.091z M483.367,508.267h-33.461  c-4.62,0-8.365-3.746-8.365-8.365s3.745-8.366,8.365-8.366h33.461c4.62,0,8.366,3.746,8.366,8.366S487.987,508.267,483.367,508.267z   M730.46,621.091c-3.956,19.821-21.494,34.8-42.466,34.8c-20.962,0-38.5-14.979-42.457-34.8c-0.561-2.756-0.847-5.59-0.847-8.503  c0-23.876,19.428-43.303,43.303-43.303c23.886,0,43.303,19.427,43.303,43.303C731.297,615.501,731.011,618.335,730.46,621.091z   M790.307,558.951H775.21c-3.444,0-6.052-2.598-5.433-5.413l2.727-12.469c0.472-2.185,2.766-3.769,5.442-3.769h12.361  c1.516,0,2.893,0.502,3.888,1.338c0.001,0.001,0.002,0.002,0.003,0.003v13.956c0,1.571,0.161,3.104,0.466,4.585  C793.651,558.264,792.077,558.951,790.307,558.951z M790.307,504.005c1.516,0,2.893,0.502,3.888,1.339  c0.001,0.001,0.002,0.002,0.003,0.003v18.979c-0.001,0.001-0.002,0.002-0.003,0.003c-0.995,0.826-2.372,1.328-3.888,1.328H775.21  c-3.444,0-6.052-2.598-5.433-5.413l2.727-12.469c0.472-2.185,2.766-3.77,5.442-3.77H790.307z M584.529,361.351l66.146-16.308  c2.539-0.62,5.147-0.935,7.765-0.935h89.303c1.132,0,2.244,0.296,3.238,0.846l17.833,10.117c0.581,0.325,1.132,0.709,1.614,1.171  c4.537,4.33,1.466,9.979-3.071,9.979H585.12c-1.368,0-2.471-1.112-2.471-2.47C582.649,362.611,583.417,361.617,584.529,361.351z   M534.051,398.533c0-5.708,4.626-10.334,10.334-10.334h213.897c5.167,0,9.547,3.818,10.236,8.946l8.021,59.168  c0.836,6.2-3.986,11.722-10.246,11.722H544.385c-5.708,0-10.334-4.626-10.334-10.334V398.533z M343.075,461.135  c3.838-3.208,7.194-7.017,9.91-11.347l37.182-59.138c4.823-7.677,13-12.588,22.026-13.257l91.547-6.732  c2.519-0.187,4.557,2.028,4.163,4.527l-7.008,44.385c-1.456,9.251-5.491,17.912-11.642,24.978  c-4.409,5.059-9.733,9.133-15.638,12.036c-5.915,2.903-12.391,4.645-19.093,5.039l-108.651,6.397  C342.12,468.251,340.201,463.547,343.075,461.135z M274.232,569.285c23.876,0,43.303,19.427,43.303,43.303  c0,2.913-0.286,5.747-0.846,8.503c-3.957,19.821-21.495,34.8-42.457,34.8s-38.5-14.979-42.457-34.8  c-0.561-2.756-0.846-5.59-0.846-8.503C230.929,588.712,250.357,569.285,274.232,569.285z M202.143,497.441  c8.287,0,15.008,13.768,15.008,30.755c0,16.987-6.722,30.755-15.008,30.755c-8.287,0-15.008-13.768-15.008-30.755  C187.134,511.21,193.856,497.441,202.143,497.441z" style="fill:#231F20;"/><path d="M687.994,587.984c-13.581,0-24.604,11.013-24.604,24.604c0,2.982,0.531,5.846,1.516,8.503  c3.454,9.399,12.489,16.101,23.088,16.101c10.6,0,19.634-6.702,23.088-16.101c0.984-2.657,1.516-5.521,1.516-8.503  C712.598,598.997,701.585,587.984,687.994,587.984z" style="fill:#231F20;"/><path d="M274.232,637.192c10.6,0,19.634-6.702,23.088-16.101c0.984-2.657,1.516-5.521,1.516-8.503  c0-13.591-11.013-24.604-24.604-24.604c-13.591,0-24.604,11.013-24.604,24.604c0,2.982,0.531,5.846,1.516,8.503  C254.598,630.49,263.633,637.192,274.232,637.192z" style="fill:#231F20;"/></svg>