<?xml version="1.0" ?><svg viewBox="0 0 100 100" xmlns="http://www.w3.org/2000/svg"><title/><g data-name="Calque 2" id="Calque_2"><path d="M24.36,44.65H8.22a1.5,1.5,0,0,0-1.5,1.5V57.22a1.5,1.5,0,0,0,1.5,1.5H24.36a1.5,1.5,0,0,0,1.5-1.5V46.15A1.5,1.5,0,0,0,24.36,44.65Zm-1.5,11.07H9.72V47.65H22.86Z"/><path d="M46.84,44.65H30.7a1.5,1.5,0,0,0-1.5,1.5V57.22a1.5,1.5,0,0,0,1.5,1.5H46.84a1.5,1.5,0,0,0,1.5-1.5V46.15A1.5,1.5,0,0,0,46.84,44.65Zm-1.5,11.07H32.2V47.65H45.34Z"/><path d="M96,59.36H93.85l-5.2-9.21H90a4.92,4.92,0,0,0,4.28-1.81,5.11,5.11,0,0,0,.5-4.31c0-.12-3.51-11.94-11-11.94H1.72a1.5,1.5,0,1,0,0,3H4.59v2H1.72a1.5,1.5,0,0,0-1.5,1.5v36.6a1.5,1.5,0,0,0,1.5,1.5H9.46a7.75,7.75,0,0,0,15.41,0H76.24a7.75,7.75,0,0,0,15.41,0h6.63a1.5,1.5,0,0,0,1.5-1.5V63.12A3.75,3.75,0,0,0,96,59.36Zm-7.34,16.5a4.75,4.75,0,1,1-4.75-4.75A4.76,4.76,0,0,1,88.69,75.86ZM85.21,50.15l5.19,9.21H77.69l-.8-9.21Zm11.57,13V73.67H91.37a7.74,7.74,0,0,0-14.86,0H72.44V50.15h1.44L74.82,61a1.49,1.49,0,0,0,1.49,1.37H96A.76.76,0,0,1,96.78,63.12Zm-77.25-26v-2h8.94v2Zm11.94-2h8.94v2H31.47Zm11.94,0h3.82l-2.73,2H43.41Zm-35.82,0h8.94v2H7.59ZM21.92,75.86a4.75,4.75,0,1,1-4.75-4.75A4.76,4.76,0,0,1,21.92,75.86Zm9.48-2.93V67.54h5.39v5.39Zm23.35.74v-26h9.07v26Zm14.69-25v25H66.82V46.21a1.5,1.5,0,0,0-1.5-1.5H53.25a1.5,1.5,0,0,0-1.5,1.5V73.67h-12V66a1.5,1.5,0,0,0-1.5-1.5H29.9A1.5,1.5,0,0,0,28.4,66v7.63H24.6a7.74,7.74,0,0,0-14.86,0H3.22V40.07H45a1.51,1.51,0,0,0,.88-.28l6.48-4.7H83.8c4,0,7.17,6.58,8.11,9.83a2.25,2.25,0,0,1-.09,1.68c-.34.48-1.3.55-1.83.55h-19A1.5,1.5,0,0,0,69.44,48.65Z"/><path d="M85.44,41.45a1.5,1.5,0,0,0-1.5-1.5H70.45a1.5,1.5,0,0,0,0,3H83.94A1.5,1.5,0,0,0,85.44,41.45Z"/></g></svg>