<svg width="21" height="21" viewBox="0 0 21 21" fill="none" xmlns="http://www.w3.org/2000/svg">
<path d="M10.4996 13.3628H0.397461C0.586133 14.0272 0.836328 14.6671 1.14805 15.27H10.4996H19.8512C20.1629 14.663 20.4131 14.0272 20.6018 13.3628H10.4996Z" fill="white"/>
<path d="M10.5 15.2742H1.14844C1.49707 15.9591 1.91953 16.5949 2.40352 17.1814H10.5H18.5924C19.0764 16.5949 19.4988 15.955 19.8516 15.2742H10.5Z" fill="#BF0A30"/>
<path d="M10.5 19.0928H4.4707C6.18105 20.2945 8.26055 21 10.5 21C12.7436 21 14.823 20.2945 16.5293 19.0928H10.5Z" fill="#BF0A30"/>
<path d="M10.4996 17.1814H2.40723C3.00605 17.9033 3.69922 18.5472 4.47031 19.0886H10.4996H16.5289C17.3 18.5472 17.9932 17.9033 18.592 17.1814H10.4996Z" fill="white"/>
<path d="M10.4998 11.4556H0.0449219C0.102344 12.1118 0.225391 12.7476 0.397656 13.3628H10.4998H20.602C20.7783 12.7476 20.8973 12.1077 20.9547 11.4556H10.4998Z" fill="#BF0A30"/>
<path d="M16.5293 1.90723C14.823 0.705469 12.7436 0 10.5 0V1.90723H16.5293Z" fill="#BF0A30"/>
<path d="M10.5 7.63721H20.6021C20.4135 6.97275 20.1633 6.33291 19.8516 5.72998H10.5V7.63721Z" fill="white"/>
<path d="M10.5 5.72583H19.8516C19.4988 5.04087 19.0805 4.40513 18.5965 3.8186H10.5V5.72583Z" fill="#BF0A30"/>
<path d="M10.5 3.8186H18.5965C17.9977 3.09673 17.3045 2.45278 16.5334 1.91138H10.5V3.8186Z" fill="white"/>
<path d="M10.5 9.54443H20.959C20.9016 8.88818 20.7785 8.25244 20.6062 7.63721H10.5V9.54443Z" fill="#BF0A30"/>
<path d="M4.47051 1.90723C3.69941 2.45273 3.00625 3.09258 2.40742 3.81855C1.91934 4.40508 1.49687 5.04492 1.14824 5.72578C0.836523 6.33281 0.586328 6.96855 0.397656 7.63301C0.221289 8.24824 0.102344 8.88809 0.0449219 9.54023H10.4998V7.63301V5.72578V3.81855V1.90723V0C8.26035 0 6.17676 0.705469 4.47051 1.90723Z" fill="#002868"/>
<path d="M20.959 9.54443H10.5H0.0451172C0.0164063 9.86025 0 10.1761 0 10.5001C0 10.8241 0.0164063 11.1399 0.0451172 11.4558H10.5H20.959C20.9877 11.144 21 10.8241 21 10.5001C21 10.1761 20.9877 9.86025 20.959 9.54443Z" fill="white"/>
<path d="M5.98848 2.67822L6.62422 4.63057H8.6791L7.01797 5.84053L7.64961 7.79287L5.98848 6.58701L4.32324 7.79287L4.96309 5.84053L3.29785 4.63057H5.35273L5.98848 2.67822Z" fill="white"/>
</svg>
