<?xml version="1.0" ?><svg height="24" id="svg8" version="1.1" viewBox="0 0 24 24" width="24" xmlns="http://www.w3.org/2000/svg" xmlns:cc="http://creativecommons.org/ns#" xmlns:dc="http://purl.org/dc/elements/1.1/" xmlns:rdf="http://www.w3.org/1999/02/22-rdf-syntax-ns#" xmlns:svg="http://www.w3.org/2000/svg"><defs id="defs2"><rect height="7.0346723" id="rect2504" width="7.9207187" x="-1.1008456" y="289.81766"/></defs><g id="g2414" style="display:inline;stroke-width:0.259513;stroke-miterlimit:4;stroke-dasharray:none" transform="matrix(3.8960635,0,0,3.8111427,-0.25561571,-1107.8074)"><path d="m -75.707031,-78.548828 0.142578,0.789062 c 0,0 0.11715,0.646837 0.460937,1.351563 0.343787,0.704725 0.943108,1.54074 1.982422,1.794922 0.8646,0.211435 1.559691,0.149263 2.197266,0.05469 0.383918,-0.05695 0.821677,-0.07191 1.230469,-0.107422 v 0.03711 0.501953 1.914062 0.175782 c -1.369445,0.121112 -2.704334,0.693072 -3.75,1.716797 -2.371949,2.322175 -2.371949,6.101652 0,8.423828 1.995159,1.953292 5.041089,2.256551 7.371093,0.923828 l 2.988282,3.517578 2.785156,-2.72461 -3.595703,-2.925781 c 1.361138,-2.280845 1.051736,-5.261614 -0.94336,-7.214843 -1.06748,-1.045082 -2.436578,-1.616287 -3.835937,-1.720704 v -0.171875 -1.955078 c 0.617192,0.0063 1.113776,0.09492 1.634766,0.173828 0.649654,0.0984 1.355759,0.169416 2.240234,-0.04687 1.039313,-0.25418 1.638635,-1.090195 1.982422,-1.794922 0.343787,-0.704725 0.458984,-1.351562 0.458984,-1.351562 l 0.142578,-0.789062 -0.791015,0.232421 c 0,0 -0.366038,0.108754 -0.861329,0.19336 -0.49529,0.0846 -1.115639,0.13149 -1.521484,0.05078 -0.812355,-0.161556 -1.463586,-0.0519 -1.9375,0.160156 -0.473913,0.212054 -0.775717,0.521365 -0.916016,0.652344 -0.16962,0.158365 -0.321675,0.35561 -0.484374,0.542969 -0.280549,-0.361078 -0.570471,-0.759951 -0.953126,-1.117188 -0.14032,-0.131015 -0.442098,-0.438341 -0.916015,-0.65039 -0.473916,-0.21205 -1.125149,-0.323665 -1.9375,-0.16211 -0.405855,0.0807 -1.026191,0.03577 -1.521485,-0.04883 -0.495292,-0.0846 -0.861328,-0.193359 -0.861328,-0.193359 z m 1.404297,1.376953 c 0.03953,0.0073 0.03114,0.01056 0.07227,0.01758 0.557147,0.09517 1.251914,0.17582 1.900391,0.04687 0.627813,-0.124855 1.020529,-0.03905 1.308594,0.08984 0.288064,0.128892 0.467166,0.306665 0.638672,0.466797 0.25208,0.235336 0.493221,0.562867 0.761718,0.898437 -0.512537,0.03732 -1.065928,0.06337 -1.455078,0.121094 -0.599843,0.08898 -1.094141,0.132787 -1.796875,-0.03906 -0.60285,-0.147439 -1.033608,-0.688069 -1.3125,-1.259766 -0.0865,-0.177325 -0.06309,-0.187197 -0.117187,-0.341797 z m 10.685546,0.574219 c -0.0541,0.1546 -0.03069,0.162518 -0.117187,0.339844 -0.278891,0.571697 -0.70965,1.114281 -1.3125,1.261718 -0.718672,0.175749 -1.218532,0.12281 -1.835937,0.0293 -0.385384,-0.05837 -0.949419,-0.07413 -1.457032,-0.109375 l 0.01953,-0.02344 c 0.25548,-0.317354 0.547282,-0.658642 0.783203,-0.878907 0.171527,-0.160135 0.350604,-0.3379 0.638671,-0.466796 0.28807,-0.128898 0.680784,-0.214703 1.308594,-0.08984 0.648488,0.128961 1.34324,0.04829 1.900391,-0.04687 0.04111,-0.007 0.03274,-0.0083 0.07227,-0.01563 z m -5.523437,5.519531 c 1.297303,0 2.593073,0.485001 3.585937,1.457031 1.985731,1.944061 1.985731,5.08133 0,7.025391 -1.985729,1.944061 -5.188098,1.944061 -7.173828,0 -1.985729,-1.944061 -1.985729,-5.08133 0,-7.025391 0.992865,-0.97203 2.290588,-1.457031 3.587891,-1.457031 z m 4.666016,8.787109 2.675781,2.177735 -1.216797,1.199219 -2.226563,-2.625 c 0.138381,-0.113269 0.274366,-0.230218 0.404297,-0.357422 0.129553,-0.126835 0.247881,-0.259478 0.363282,-0.394532 z" id="path2250" style="color:#000000;font-style:normal;font-variant:normal;font-weight:normal;font-stretch:normal;font-size:medium;line-height:normal;font-family:sans-serif;font-variant-ligatures:normal;font-variant-position:normal;font-variant-caps:normal;font-variant-numeric:normal;font-variant-alternates:normal;font-variant-east-asian:normal;font-feature-settings:normal;font-variation-settings:normal;text-indent:0;text-align:start;text-decoration:none;text-decoration-line:none;text-decoration-style:solid;text-decoration-color:#000000;letter-spacing:normal;word-spacing:normal;text-transform:none;writing-mode:lr-tb;direction:ltr;text-orientation:mixed;dominant-baseline:auto;baseline-shift:baseline;text-anchor:start;white-space:normal;shape-padding:0;shape-margin:0;inline-size:0;clip-rule:nonzero;display:inline;overflow:visible;visibility:visible;opacity:1;isolation:auto;mix-blend-mode:normal;color-interpolation:sRGB;color-interpolation-filters:linearRGB;solid-color:#000000;solid-opacity:1;vector-effect:none;fill:#000000;fill-opacity:1;fill-rule:nonzero;stroke:none;stroke-width:0.999999;stroke-linecap:square;stroke-linejoin:miter;stroke-miterlimit:4;stroke-dasharray:none;stroke-dashoffset:0;stroke-opacity:1;paint-order:fill markers stroke;color-rendering:auto;image-rendering:auto;shape-rendering:auto;text-rendering:auto;enable-background:accumulate;stop-color:#000000;stop-opacity:1" transform="matrix(0.25666933,0,0,0.2623885,20.599907,311.6675)"/><path d="m 2.7207834,293.41969 v 0.12607 0.10814 H 2.3297636 v 0.79177 h 0.7820393 v 0.28904 H 2.4626103 2.3297636 v 0.25265 h 0.1328467 0.2581731 v 0.10762 0.12607 h 0.2651915 v -0.12607 -0.10762 h 0.3910198 v -0.79434 h -0.781538 v -0.28699 H 3.2441481 3.3769947 V 293.6539 H 3.2441481 2.9859749 v -0.10814 -0.12607 z" id="path2312" style="color:#000000;font-style:normal;font-variant:normal;font-weight:normal;font-stretch:normal;font-size:medium;line-height:normal;font-family:sans-serif;font-variant-ligatures:normal;font-variant-position:normal;font-variant-caps:normal;font-variant-numeric:normal;font-variant-alternates:normal;font-variant-east-asian:normal;font-feature-settings:normal;font-variation-settings:normal;text-indent:0;text-align:start;text-decoration:none;text-decoration-line:none;text-decoration-style:solid;text-decoration-color:#000000;letter-spacing:normal;word-spacing:normal;text-transform:none;writing-mode:lr-tb;direction:ltr;text-orientation:mixed;dominant-baseline:auto;baseline-shift:baseline;text-anchor:start;white-space:normal;shape-padding:0;shape-margin:0;inline-size:0;clip-rule:nonzero;display:inline;overflow:visible;visibility:visible;isolation:auto;mix-blend-mode:normal;color-interpolation:sRGB;color-interpolation-filters:linearRGB;solid-color:#000000;solid-opacity:1;vector-effect:none;fill:#000000;fill-opacity:1;fill-rule:nonzero;stroke:none;stroke-width:0.259513;stroke-linecap:square;stroke-linejoin:miter;stroke-miterlimit:4;stroke-dasharray:none;stroke-dashoffset:0;stroke-opacity:1;color-rendering:auto;image-rendering:auto;shape-rendering:auto;text-rendering:auto;enable-background:accumulate;stop-color:#000000"/></g></svg>