<?xml version="1.0" ?><svg viewBox="0 0 512 512" xmlns="http://www.w3.org/2000/svg"><g id="reuse_energy"><path d="M192.5674,266h37.2811l-.0663,95.5254a10,10,0,0,0,17.9815,6.0312l79.65-105.5322A10,10,0,0,0,319.4326,246H282.1514l.0664-95.5254a10,10,0,0,0-17.9815-6.0312l-79.65,105.5322A10,10,0,0,0,192.5674,266Zm69.63-85.6558-.0528,75.649h0l0,.0068a10,10,0,0,0,10,10h27.2119l-49.5537,65.6558.0528-75.649A10,10,0,0,0,239.8623,246H212.6436Z"/><path d="M256,63.854C150.0508,63.854,63.8545,150.05,63.8545,256S150.0508,448.146,256,448.146,448.1455,361.95,448.1455,256,361.9492,63.854,256,63.854Zm104.4944,328.85,1.1787-42.4784a9.9853,9.9853,0,0,0,15.2732-.6143A151.4105,151.4105,0,0,0,408.998,256c0-84.3638-68.6347-152.9985-152.998-152.9985a151.21,151.21,0,0,0-67.8857,15.8994,10,10,0,0,0,8.9023,17.91A131.3687,131.3687,0,0,1,256,123.0015c73.335,0,132.998,59.6631,132.998,132.9985a131.399,131.399,0,0,1-21.0312,71.6987l-8.5908-8.5908a10,10,0,0,0-17.0674,6.8071l-2.1953,80.2334A171.0754,171.0754,0,0,1,256,428.146c-94.9209,0-172.1455-77.2241-172.1455-172.146A171.96,171.96,0,0,1,151.57,119.2468l-1.2427,42.5308a9.95,9.95,0,0,0-15.2758.613A151.42,151.42,0,0,0,103.002,256c0,84.3638,68.6347,152.9985,152.998,152.9985a153.1744,153.1744,0,0,0,69.8662-16.9023,10,10,0,1,0-9.1621-17.7783A131.2577,131.2577,0,0,1,256,388.9985c-73.335,0-132.998-59.6631-132.998-132.9985a131.4006,131.4006,0,0,1,21.0314-71.6985l8.5906,8.5906a10,10,0,0,0,17.0674-6.8071l2.2666-79.8423c.0038-.1433-.008-.2832-.01-.4253A171.075,171.075,0,0,1,256,83.854c94.9209,0,172.1455,77.2241,172.1455,172.146A171.9584,171.9584,0,0,1,360.4944,392.7035Z"/></g></svg>